ffmpeg version N-82167-g5e96558 Copyright (c) 2000-2016 the FFmpeg developers
  built with gcc 5.4.0 (Ubuntu 5.4.0-6ubuntu1~16.04.2) 20160609
  configuration: --prefix=/root/ffmpeg_build --pkg-config-flags=--static --extra-cflags=-I/root/ffmpeg_build/include --extra-ldflags=-L/root/ffmpeg_build/lib --bindir=/root/bin --enable-gpl --enable-libass --enable-libfdk-aac --enable-libfreetype --enable-libmp3lame --enable-libopus --enable-libtheora --enable-libvorbis --enable-libx264 --enable-libx265 --enable-nonfree
  libavutil      55. 35.100 / 55. 35.100
  libavcodec     57. 65.100 / 57. 65.100
  libavformat    57. 57.100 / 57. 57.100
  libavdevice    57.  2.100 / 57.  2.100
  libavfilter     6. 66.100 /  6. 66.100
  libswscale      4.  3.100 /  4.  3.100
  libswresample   2.  4.100 /  2.  4.100
  libpostproc    54.  2.100 / 54.  2.100
Input #0, matroska,webm, from '/media/yubikiri/bot/queue/3AnimePahe_Detective_Conan_-_019_720p_Fansub.mkv':
  Metadata:
    title           : 3|Text||0|0
    ENCODER         : Lavf57.57.100
  Duration: 00:24:43.73, start: 0.000000, bitrate: 966 kb/s
    Stream #0:0: Video: mpeg4 (Simple Profile), yuv420p, 640x480 [SAR 1:1 DAR 4:3], 23.98 fps, 23.98 tbr, 1k tbn, 23.98 tbc (default)
    Metadata:
      DURATION        : 00:24:43.734000000
    Stream #0:1: Audio: mp3, 48000 Hz, stereo, s16p, 112 kb/s (default)
    Metadata:
      DURATION        : 00:24:43.560000000
[libx264 @ 0x378e560] using SAR=1/1
[libx264 @ 0x378e560] using cpu capabilities: MMX2 SSE2Fast SSSE3 SSE4.2 AVX FMA3 AVX2 LZCNT BMI2
[libx264 @ 0x378e560] profile High, level 3.1
[libx264 @ 0x378e560] 264 - core 148 r2643 5c65704 - H.264/MPEG-4 AVC codec - Copyleft 2003-2015 - http://www.videolan.org/x264.html - options: cabac=1 ref=8 deblock=1:1:1 analyse=0x3:0x133 me=umh subme=7 psy=1 psy_rd=0.00:0.00 mixed_ref=1 me_range=8 chroma_me=1 trellis=0 8x8dct=1 cqm=0 deadzone=21,11 fast_pskip=1 chroma_qp_offset=0 threads=8 lookahead_threads=2 sliced_threads=0 nr=0 decimate=1 interlaced=0 bluray_compat=0 constrained_intra=0 bframes=3 b_pyramid=2 b_adapt=2 b_bias=0 direct=1 weightb=1 open_gop=0 weightp=2 keyint=240 keyint_min=24 scenecut=40 intra_refresh=0 rc_lookahead=60 rc=crf mbtree=1 crf=27.0 qcomp=0.60 qpmin=0 qpmax=69 qpstep=4 ip_ratio=1.40 aq=1:1.00
[libfdk_aac @ 0x3717620] Note, the VBR setting is unsupported and only works with some parameter combinations
Output #0, mp4, to '/media/yubikiri/bot/queue/3AnimePahe_Detective_Conan_-_019_720p_Fansub.mkv_encoded.mp4':
  Metadata:
    encoder         : Lavf57.57.100
    Stream #0:0: Video: h264 (libx264) ([33][0][0][0] / 0x0021), yuv420p, 640x480 [SAR 1:1 DAR 4:3], q=-1--1, 23.98 fps, 11988 tbn, 23.98 tbc (default)
    Metadata:
      encoder         : Lavc57.65.100 libx264
    Side data:
      cpb: bitrate max/min/avg: 0/0/0 buffer size: 0 vbv_delay: -1
    Stream #0:1: Audio: aac (libfdk_aac) (HE-AACv2) ([64][0][0][0] / 0x0040), 48000 Hz, stereo, s16, 48 kb/s (default)
    Metadata:
      encoder         : Lavc57.65.100 libfdk_aac
Stream mapping:
  Stream #0:0 -> #0:0 (mpeg4 (native) -> h264 (libx264))
  Stream #0:1 -> #0:1 (mp3 (native) -> aac (libfdk_aac))
Press [q] to stop, [?] for help
frame=  148 fps=0.0 q=32.0 size=      84kB time=00:00:06.37 bitrate= 108.3kbits/s dup=5 drop=0 speed=12.8x    frame=  253 fps=253 q=32.0 size=     217kB time=00:00:10.68 bitrate= 166.5kbits/s dup=5 drop=0 speed=10.7x    frame=  390 fps=260 q=32.0 size=     333kB time=00:00:16.40 bitrate= 166.1kbits/s dup=5 drop=0 speed=10.9x    frame=  442 fps=220 q=32.0 size=     445kB time=00:00:18.58 bitrate= 196.3kbits/s dup=5 drop=0 speed=9.25x    frame=  507 fps=201 q=32.0 size=     585kB time=00:00:21.31 bitrate= 224.8kbits/s dup=5 drop=0 speed=8.46x    frame=  579 fps=192 q=32.0 size=     703kB time=00:00:24.29 bitrate= 237.0kbits/s dup=5 drop=0 speed=8.04x    frame=  636 fps=181 q=32.0 size=     873kB time=00:00:26.68 bitrate= 267.9kbits/s dup=5 drop=0 speed=7.58x    frame=  684 fps=170 q=32.0 size=    1028kB time=00:00:28.69 bitrate= 293.4kbits/s dup=5 drop=0 speed=7.12x    frame=  740 fps=163 q=32.0 size=    1166kB time=00:00:31.04 bitrate= 307.7kbits/s dup=5 drop=0 speed=6.84x    frame=  785 fps=155 q=32.0 size=    1285kB time=00:00:32.91 bitrate= 319.9kbits/s dup=5 drop=0 speed= 6.5x    frame=  816 fps=146 q=32.0 size=    1413kB time=00:00:34.19 bitrate= 338.5kbits/s dup=5 drop=0 speed=6.13x    frame=  848 fps=139 q=32.0 size=    1585kB time=00:00:35.52 bitrate= 365.7kbits/s dup=5 drop=0 speed=5.84x    frame=  885 fps=134 q=32.0 size=    1777kB time=00:00:37.09 bitrate= 392.5kbits/s dup=5 drop=0 speed=5.61x    frame=  914 fps=128 q=32.0 size=    1916kB time=00:00:38.29 bitrate= 409.9kbits/s dup=5 drop=0 speed=5.37x    frame=  957 fps=125 q=32.0 size=    2071kB time=00:00:40.08 bitrate= 423.3kbits/s dup=5 drop=0 speed=5.25x    frame= 1009 fps=124 q=32.0 size=    2225kB time=00:00:42.21 bitrate= 431.8kbits/s dup=5 drop=0 speed=5.19x    frame= 1064 fps=123 q=32.0 size=    2374kB time=00:00:44.52 bitrate= 436.9kbits/s dup=5 drop=0 speed=5.15x    frame= 1127 fps=123 q=32.0 size=    2563kB time=00:00:47.16 bitrate= 445.1kbits/s dup=5 drop=0 speed=5.16x    frame= 1189 fps=123 q=32.0 size=    2734kB time=00:00:49.77 bitrate= 450.0kbits/s dup=5 drop=0 speed=5.16x    frame= 1221 fps=120 q=32.0 size=    2858kB time=00:00:51.09 bitrate= 458.2kbits/s dup=5 drop=0 speed=5.03x    frame= 1264 fps=118 q=32.0 size=    3150kB time=00:00:52.88 bitrate= 488.0kbits/s dup=5 drop=0 speed=4.94x    frame= 1347 fps=120 q=32.0 size=    3330kB time=00:00:56.34 bitrate= 484.2kbits/s dup=5 drop=0 speed=5.03x    frame= 1394 fps=119 q=32.0 size=    3498kB time=00:00:58.30 bitrate= 491.5kbits/s dup=5 drop=0 speed=4.98x    frame= 1448 fps=119 q=32.0 size=    3705kB time=00:01:00.56 bitrate= 501.2kbits/s dup=5 drop=0 speed=4.96x    frame= 1504 fps=118 q=32.0 size=    3915kB time=00:01:02.87 bitrate= 510.2kbits/s dup=5 drop=0 speed=4.94x    frame= 1575 fps=119 q=32.0 size=    4125kB time=00:01:05.85 bitrate= 513.1kbits/s dup=5 drop=0 speed=4.98x    frame= 1647 fps=120 q=32.0 size=    4259kB time=00:01:08.84 bitrate= 506.8kbits/s dup=5 drop=0 speed=5.01x    frame= 1707 fps=120 q=32.0 size=    4456kB time=00:01:11.36 bitrate= 511.5kbits/s dup=5 drop=0 speed=   5x    frame= 1769 fps=120 q=32.0 size=    4642kB time=00:01:13.96 bitrate= 514.1kbits/s dup=5 drop=0 speed=   5x    frame= 1811 fps=118 q=32.0 size=    4784kB time=00:01:15.71 bitrate= 517.6kbits/s dup=5 drop=0 speed=4.95x    frame= 1846 fps=117 q=32.0 size=    4969kB time=00:01:17.16 bitrate= 527.5kbits/s dup=5 drop=0 speed=4.89x    frame= 1888 fps=116 q=32.0 size=    5149kB time=00:01:18.91 bitrate= 534.6kbits/s dup=5 drop=0 speed=4.84x    frame= 1941 fps=115 q=32.0 size=    5305kB time=00:01:21.13 bitrate= 535.6kbits/s dup=5 drop=0 speed=4.83x    frame= 1996 fps=115 q=32.0 size=    5452kB time=00:01:23.39 bitrate= 535.6kbits/s dup=5 drop=0 speed=4.82x    frame= 2040 fps=114 q=32.0 size=    5549kB time=00:01:25.22 bitrate= 533.4kbits/s dup=5 drop=0 speed=4.78x    frame= 2086 fps=114 q=32.0 size=    5606kB time=00:01:27.14 bitrate= 526.9kbits/s dup=5 drop=0 speed=4.76x    frame= 2137 fps=113 q=32.0 size=    5696kB time=00:01:29.28 bitrate= 522.6kbits/s dup=5 drop=0 speed=4.73x    frame= 2194 fps=113 q=32.0 size=    5796kB time=00:01:31.67 bitrate= 517.9kbits/s dup=5 drop=0 speed=4.73x    frame= 2284 fps=115 q=32.0 size=    5884kB time=00:01:35.42 bitrate= 505.1kbits/s dup=5 drop=0 speed= 4.8x    frame= 2363 fps=116 q=32.0 size=    5938kB time=00:01:38.75 bitrate= 492.6kbits/s dup=5 drop=0 speed=4.84x    frame= 2439 fps=117 q=32.0 size=    5989kB time=00:01:41.86 bitrate= 481.6kbits/s dup=5 drop=0 speed=4.88x    frame= 2520 fps=118 q=32.0 size=    6068kB time=00:01:45.23 bitrate= 472.3kbits/s dup=5 drop=0 speed=4.92x    frame= 2601 fps=119 q=32.0 size=    6121kB time=00:01:48.65 bitrate= 461.5kbits/s dup=5 drop=0 speed=4.96x    frame= 2713 fps=121 q=32.0 size=    6222kB time=00:01:53.34 bitrate= 449.7kbits/s dup=5 drop=0 speed=5.06x    frame= 2817 fps=123 q=32.0 size=    6294kB time=00:01:57.65 bitrate= 438.3kbits/s dup=5 drop=0 speed=5.13x    frame= 2860 fps=122 q=32.0 size=    6364kB time=00:01:59.44 bitrate= 436.5kbits/s dup=5 drop=0 speed=5.09x    frame= 2912 fps=121 q=32.0 size=    6479kB time=00:02:01.62 bitrate= 436.4kbits/s dup=5 drop=0 speed=5.07x    frame= 2989 fps=122 q=32.0 size=    6564kB time=00:02:04.82 bitrate= 430.8kbits/s dup=5 drop=0 speed= 5.1x    frame= 3060 fps=122 q=32.0 size=    6651kB time=00:02:07.76 bitrate= 426.4kbits/s dup=5 drop=0 speed=5.11x    frame= 3121 fps=122 q=32.0 size=    6731kB time=00:02:10.32 bitrate= 423.1kbits/s dup=5 drop=0 speed=5.11x    frame= 3163 fps=122 q=32.0 size=    6799kB time=00:02:12.07 bitrate= 421.7kbits/s dup=5 drop=0 speed=5.08x    frame= 3225 fps=122 q=32.0 size=    6858kB time=00:02:14.67 bitrate= 417.1kbits/s dup=5 drop=0 speed=5.08x    frame= 3276 fps=121 q=32.0 size=    6910kB time=00:02:16.81 bitrate= 413.7kbits/s dup=5 drop=0 speed=5.07x    frame= 3346 fps=122 q=32.0 size=    6979kB time=00:02:19.71 bitrate= 409.2kbits/s dup=5 drop=0 speed=5.08x    frame= 3412 fps=122 q=32.0 size=    7037kB time=00:02:22.44 bitrate= 404.7kbits/s dup=5 drop=0 speed=5.09x    frame= 3463 fps=122 q=32.0 size=    7098kB time=00:02:24.57 bitrate= 402.2kbits/s dup=5 drop=0 speed=5.07x    frame= 3535 fps=122 q=32.0 size=    7153kB time=00:02:27.60 bitrate= 397.0kbits/s dup=5 drop=0 speed=5.09x    frame= 3603 fps=122 q=32.0 size=    7213kB time=00:02:30.42 bitrate= 392.8kbits/s dup=5 drop=0 speed= 5.1x    frame= 3677 fps=123 q=32.0 size=    7287kB time=00:02:33.53 bitrate= 388.8kbits/s dup=5 drop=0 speed=5.12x    frame= 3738 fps=122 q=32.0 size=    7392kB time=00:02:36.05 bitrate= 388.0kbits/s dup=5 drop=0 speed=5.11x    frame= 3790 fps=122 q=32.0 size=    7487kB time=00:02:38.23 bitrate= 387.6kbits/s dup=5 drop=0 speed= 5.1x    frame= 3834 fps=122 q=32.0 size=    7570kB time=00:02:40.06 bitrate= 387.4kbits/s dup=5 drop=0 speed=5.08x    frame= 3909 fps=122 q=32.0 size=    7668kB time=00:02:43.17 bitrate= 385.0kbits/s dup=5 drop=0 speed=5.09x    frame= 3961 fps=122 q=32.0 size=    7769kB time=00:02:45.35 bitrate= 384.9kbits/s dup=5 drop=0 speed=5.08x    frame= 4020 fps=122 q=32.0 size=    7877kB time=00:02:47.87 bitrate= 384.4kbits/s dup=5 drop=0 speed=5.08x    frame= 4101 fps=122 q=32.0 size=    7960kB time=00:02:51.20 bitrate= 380.9kbits/s dup=5 drop=0 speed= 5.1x    frame= 4172 fps=122 q=32.0 size=    8038kB time=00:02:54.18 bitrate= 378.0kbits/s dup=5 drop=0 speed=5.11x    frame= 4252 fps=123 q=32.0 size=    8134kB time=00:02:57.51 bitrate= 375.4kbits/s dup=5 drop=0 speed=5.13x    frame= 4316 fps=123 q=32.0 size=    8240kB time=00:03:00.16 bitrate= 374.7kbits/s dup=5 drop=0 speed=5.13x    frame= 4389 fps=123 q=32.0 size=    8325kB time=00:03:03.23 bitrate= 372.2kbits/s dup=5 drop=0 speed=5.15x    frame= 4476 fps=124 q=32.0 size=    8419kB time=00:03:06.85 bitrate= 369.1kbits/s dup=5 drop=0 speed=5.18x    frame= 4551 fps=124 q=32.0 size=    8479kB time=00:03:09.97 bitrate= 365.6kbits/s dup=5 drop=0 speed=5.19x    frame= 4619 fps=124 q=32.0 size=    8558kB time=00:03:12.83 bitrate= 363.6kbits/s dup=5 drop=0 speed=5.19x    frame= 4699 fps=125 q=32.0 size=    8654kB time=00:03:16.16 bitrate= 361.4kbits/s dup=5 drop=0 speed=5.21x    frame= 4759 fps=125 q=32.0 size=    8752kB time=00:03:18.63 bitrate= 361.0kbits/s dup=5 drop=0 speed=5.21x    frame= 4829 fps=125 q=32.0 size=    8832kB time=00:03:21.57 bitrate= 358.9kbits/s dup=5 drop=0 speed=5.22x    frame= 4905 fps=125 q=32.0 size=    8931kB time=00:03:24.73 bitrate= 357.4kbits/s dup=5 drop=0 speed=5.23x    frame= 4972 fps=125 q=32.0 size=    9008kB time=00:03:27.51 bitrate= 355.6kbits/s dup=5 drop=0 speed=5.23x    frame= 5033 fps=125 q=32.0 size=    9098kB time=00:03:30.11 bitrate= 354.7kbits/s dup=5 drop=0 speed=5.23x    frame= 5097 fps=125 q=32.0 size=    9183kB time=00:03:32.71 bitrate= 353.6kbits/s dup=5 drop=0 speed=5.23x    frame= 5167 fps=125 q=32.0 size=    9285kB time=00:03:35.65 bitrate= 352.7kbits/s dup=5 drop=0 speed=5.24x    frame= 5221 fps=125 q=32.0 size=    9364kB time=00:03:37.92 bitrate= 352.0kbits/s dup=5 drop=0 speed=5.22x    frame= 5255 fps=124 q=32.0 size=    9460kB time=00:03:39.32 bitrate= 353.3kbits/s dup=5 drop=0 speed= 5.2x    frame= 5287 fps=124 q=32.0 size=    9567kB time=00:03:40.69 bitrate= 355.1kbits/s dup=5 drop=0 speed=5.17x    frame= 5342 fps=124 q=32.0 size=    9695kB time=00:03:42.95 bitrate= 356.2kbits/s dup=5 drop=0 speed=5.16x    frame= 5417 fps=124 q=32.0 size=    9787kB time=00:03:46.11 bitrate= 354.6kbits/s dup=5 drop=0 speed=5.17x    frame= 5485 fps=124 q=32.0 size=    9901kB time=00:03:48.92 bitrate= 354.3kbits/s dup=5 drop=0 speed=5.17x    frame= 5544 fps=124 q=32.0 size=   10002kB time=00:03:51.40 bitrate= 354.1kbits/s dup=5 drop=0 speed=5.17x    frame= 5610 fps=124 q=32.0 size=   10084kB time=00:03:54.13 bitrate= 352.8kbits/s dup=5 drop=0 speed=5.17x    frame= 5713 fps=125 q=32.0 size=   10172kB time=00:03:58.44 bitrate= 349.5kbits/s dup=5 drop=0 speed=5.21x    frame= 5825 fps=126 q=32.0 size=   10240kB time=00:04:03.09 bitrate= 345.1kbits/s dup=5 drop=0 speed=5.25x    frame= 5903 fps=126 q=32.0 size=   10332kB time=00:04:06.33 bitrate= 343.6kbits/s dup=5 drop=0 speed=5.27x    frame= 5970 fps=126 q=32.0 size=   10434kB time=00:04:09.15 bitrate= 343.1kbits/s dup=5 drop=0 speed=5.27x    frame= 6044 fps=126 q=32.0 size=   10516kB time=00:04:12.22 bitrate= 341.5kbits/s dup=5 drop=0 speed=5.28x    frame= 6110 fps=127 q=32.0 size=   10589kB time=00:04:14.99 bitrate= 340.2kbits/s dup=5 drop=0 speed=5.28x    frame= 6151 fps=126 q=32.0 size=   10679kB time=00:04:16.74 bitrate= 340.7kbits/s dup=5 drop=0 speed=5.26x    frame= 6189 fps=126 q=32.0 size=   10773kB time=00:04:18.28 bitrate= 341.7kbits/s dup=5 drop=0 speed=5.24x    frame= 6271 fps=126 q=32.0 size=   10876kB time=00:04:21.73 bitrate= 340.4kbits/s dup=5 drop=0 speed=5.26x    frame= 6356 fps=126 q=32.0 size=   10957kB time=00:04:25.23 bitrate= 338.4kbits/s dup=5 drop=0 speed=5.27x    frame= 6433 fps=127 q=32.0 size=   11060kB time=00:04:28.43 bitrate= 337.5kbits/s dup=5 drop=0 speed=5.28x    frame= 6515 fps=127 q=32.0 size=   11155kB time=00:04:31.89 bitrate= 336.1kbits/s dup=5 drop=0 speed= 5.3x    frame= 6606 fps=128 q=32.0 size=   11259kB time=00:04:35.64 bitrate= 334.6kbits/s dup=5 drop=0 speed=5.32x    frame= 6689 fps=128 q=32.0 size=   11409kB time=00:04:39.14 bitrate= 334.8kbits/s dup=5 drop=0 speed=5.34x    frame= 6778 fps=128 q=32.0 size=   11505kB time=00:04:42.85 bitrate= 333.2kbits/s dup=5 drop=0 speed=5.36x    frame= 6863 fps=129 q=32.0 size=   11610kB time=00:04:46.40 bitrate= 332.1kbits/s dup=5 drop=0 speed=5.37x    frame= 6955 fps=129 q=32.0 size=   11704kB time=00:04:50.24 bitrate= 330.3kbits/s dup=5 drop=0 speed=5.39x    frame= 7052 fps=130 q=32.0 size=   11848kB time=00:04:54.29 bitrate= 329.8kbits/s dup=5 drop=0 speed=5.41x    frame= 7123 fps=130 q=32.0 size=   11999kB time=00:04:57.23 bitrate= 330.7kbits/s dup=5 drop=0 speed=5.42x    frame= 7221 fps=130 q=32.0 size=   12132kB time=00:05:01.33 bitrate= 329.8kbits/s dup=5 drop=0 speed=5.44x    frame= 7331 fps=131 q=32.0 size=   12247kB time=00:05:05.94 bitrate= 327.9kbits/s dup=5 drop=0 speed=5.48x    frame= 7444 fps=132 q=32.0 size=   12346kB time=00:05:10.63 bitrate= 325.6kbits/s dup=5 drop=0 speed=5.51x    frame= 7501 fps=132 q=32.0 size=   12478kB time=00:05:13.02 bitrate= 326.5kbits/s dup=5 drop=0 speed= 5.5x    frame= 7593 fps=132 q=32.0 size=   12575kB time=00:05:16.86 bitrate= 325.1kbits/s dup=5 drop=0 speed=5.52x    frame= 7682 fps=133 q=32.0 size=   12696kB time=00:05:20.53 bitrate= 324.5kbits/s dup=5 drop=0 speed=5.53x    frame= 7773 fps=133 q=32.0 size=   12797kB time=00:05:24.37 bitrate= 323.2kbits/s dup=5 drop=0 speed=5.55x    frame= 7869 fps=134 q=29.0 size=   12878kB time=00:05:28.34 bitrate= 321.3kbits/s dup=5 drop=0 speed=5.57x    frame= 7950 fps=134 q=32.0 size=   12991kB time=00:05:31.75 bitrate= 320.8kbits/s dup=5 drop=0 speed=5.58x    frame= 8033 fps=134 q=32.0 size=   13077kB time=00:05:35.21 bitrate= 319.6kbits/s dup=5 drop=0 speed=5.59x    frame= 8109 fps=134 q=32.0 size=   13169kB time=00:05:38.36 bitrate= 318.8kbits/s dup=5 drop=0 speed= 5.6x    frame= 8190 fps=134 q=32.0 size=   13295kB time=00:05:41.73 bitrate= 318.7kbits/s dup=5 drop=0 speed=5.61x    frame= 8266 fps=135 q=32.0 size=   13359kB time=00:05:44.93 bitrate= 317.3kbits/s dup=5 drop=0 speed=5.61x    frame= 8298 fps=134 q=32.0 size=   13464kB time=00:05:46.26 bitrate= 318.5kbits/s dup=5 drop=0 speed=5.59x    frame= 8385 fps=134 q=32.0 size=   13571kB time=00:05:49.88 bitrate= 317.7kbits/s dup=5 drop=0 speed= 5.6x    frame= 8475 fps=135 q=32.0 size=   13673kB time=00:05:53.64 bitrate= 316.7kbits/s dup=5 drop=0 speed=5.62x    frame= 8564 fps=135 q=32.0 size=   13762kB time=00:05:57.35 bitrate= 315.5kbits/s dup=5 drop=0 speed=5.63x    frame= 8640 fps=135 q=32.0 size=   13852kB time=00:06:00.51 bitrate= 314.8kbits/s dup=5 drop=0 speed=5.63x    frame= 8714 fps=135 q=32.0 size=   13950kB time=00:06:03.58 bitrate= 314.3kbits/s dup=5 drop=0 speed=5.64x    frame= 8775 fps=135 q=32.0 size=   14064kB time=00:06:06.18 bitrate= 314.6kbits/s dup=5 drop=0 speed=5.63x    frame= 8852 fps=135 q=32.0 size=   14165kB time=00:06:09.34 bitrate= 314.2kbits/s dup=5 drop=0 speed=5.64x    frame= 8937 fps=135 q=32.0 size=   14248kB time=00:06:12.88 bitrate= 313.0kbits/s dup=5 drop=0 speed=5.65x    frame= 9021 fps=136 q=32.0 size=   14339kB time=00:06:16.42 bitrate= 312.0kbits/s dup=5 drop=0 speed=5.66x    frame= 9097 fps=136 q=32.0 size=   14443kB time=00:06:19.58 bitrate= 311.7kbits/s dup=5 drop=0 speed=5.66x    frame= 9174 fps=136 q=32.0 size=   14553kB time=00:06:22.78 bitrate= 311.5kbits/s dup=5 drop=0 speed=5.67x    frame= 9242 fps=136 q=32.0 size=   14645kB time=00:06:25.64 bitrate= 311.1kbits/s dup=5 drop=0 speed=5.66x    frame= 9330 fps=136 q=32.0 size=   14766kB time=00:06:29.31 bitrate= 310.7kbits/s dup=5 drop=0 speed=5.68x    frame= 9423 fps=136 q=32.0 size=   14862kB time=00:06:33.15 bitrate= 309.7kbits/s dup=5 drop=0 speed=5.69x    frame= 9498 fps=136 q=32.0 size=   14960kB time=00:06:36.31 bitrate= 309.2kbits/s dup=5 drop=0 speed=5.69x    frame= 9559 fps=136 q=32.0 size=   15018kB time=00:06:38.87 bitrate= 308.4kbits/s dup=5 drop=0 speed=5.69x    frame= 9637 fps=136 q=32.0 size=   15118kB time=00:06:42.11 bitrate= 308.0kbits/s dup=5 drop=0 speed=5.69x    frame= 9701 fps=136 q=32.0 size=   15190kB time=00:06:44.80 bitrate= 307.4kbits/s dup=5 drop=0 speed=5.69x    frame= 9775 fps=136 q=32.0 size=   15296kB time=00:06:47.83 bitrate= 307.2kbits/s dup=5 drop=0 speed=5.69x    frame= 9849 fps=136 q=32.0 size=   15396kB time=00:06:50.94 bitrate= 306.9kbits/s dup=5 drop=0 speed=5.69x    frame= 9930 fps=137 q=32.0 size=   15461kB time=00:06:54.31 bitrate= 305.7kbits/s dup=5 drop=0 speed= 5.7x    frame=10010 fps=137 q=32.0 size=   15596kB time=00:06:57.68 bitrate= 305.9kbits/s dup=5 drop=0 speed=5.71x    frame=10122 fps=137 q=32.0 size=   15695kB time=00:07:02.33 bitrate= 304.4kbits/s dup=5 drop=0 speed=5.73x    frame=10213 fps=138 q=32.0 size=   15783kB time=00:07:06.13 bitrate= 303.4kbits/s dup=5 drop=0 speed=5.74x    frame=10294 fps=138 q=32.0 size=   15902kB time=00:07:09.50 bitrate= 303.3kbits/s dup=5 drop=0 speed=5.75x    frame=10348 fps=137 q=32.0 size=   16018kB time=00:07:11.76 bitrate= 303.9kbits/s dup=5 drop=0 speed=5.74x    frame=10426 fps=138 q=32.0 size=   16104kB time=00:07:15.00 bitrate= 303.3kbits/s dup=5 drop=0 speed=5.74x    frame=10499 fps=138 q=32.0 size=   16225kB time=00:07:18.03 bitrate= 303.4kbits/s dup=5 drop=0 speed=5.74x    frame=10572 fps=138 q=32.0 size=   16308kB time=00:07:21.11 bitrate= 302.9kbits/s dup=5 drop=0 speed=5.74x    frame=10640 fps=138 q=32.0 size=   16436kB time=00:07:23.92 bitrate= 303.3kbits/s dup=5 drop=0 speed=5.74x    frame=10704 fps=138 q=29.0 size=   16540kB time=00:07:26.61 bitrate= 303.4kbits/s dup=5 drop=0 speed=5.74x    frame=10786 fps=138 q=32.0 size=   16641kB time=00:07:29.98 bitrate= 303.0kbits/s dup=5 drop=0 speed=5.74x    frame=10835 fps=137 q=32.0 size=   16725kB time=00:07:32.07 bitrate= 303.1kbits/s dup=5 drop=0 speed=5.73x    frame=10888 fps=137 q=32.0 size=   16868kB time=00:07:34.25 bitrate= 304.2kbits/s dup=5 drop=0 speed=5.72x    frame=10965 fps=137 q=32.0 size=   17017kB time=00:07:37.49 bitrate= 304.7kbits/s dup=5 drop=0 speed=5.73x    frame=11015 fps=137 q=32.0 size=   17181kB time=00:07:39.58 bitrate= 306.2kbits/s dup=5 drop=0 speed=5.72x    frame=11090 fps=137 q=32.0 size=   17281kB time=00:07:42.69 bitrate= 306.0kbits/s dup=5 drop=0 speed=5.72x    frame=11164 fps=137 q=32.0 size=   17392kB time=00:07:45.77 bitrate= 305.9kbits/s dup=5 drop=0 speed=5.72x    frame=11244 fps=137 q=32.0 size=   17482kB time=00:07:49.14 bitrate= 305.3kbits/s dup=5 drop=0 speed=5.73x    frame=11319 fps=137 q=32.0 size=   17554kB time=00:07:52.25 bitrate= 304.5kbits/s dup=5 drop=0 speed=5.73x    frame=11396 fps=137 q=32.0 size=   17658kB time=00:07:55.45 bitrate= 304.2kbits/s dup=5 drop=0 speed=5.73x    frame=11495 fps=138 q=32.0 size=   17741kB time=00:07:59.59 bitrate= 303.0kbits/s dup=5 drop=0 speed=5.75x    frame=11577 fps=138 q=32.0 size=   17837kB time=00:08:03.00 bitrate= 302.5kbits/s dup=5 drop=0 speed=5.75x    frame=11631 fps=138 q=32.0 size=   17942kB time=00:08:05.27 bitrate= 302.9kbits/s dup=5 drop=0 speed=5.75x    frame=11686 fps=138 q=32.0 size=   18036kB time=00:08:07.57 bitrate= 303.0kbits/s dup=5 drop=0 speed=5.74x    frame=11740 fps=137 q=32.0 size=   18120kB time=00:08:09.83 bitrate= 303.0kbits/s dup=5 drop=0 speed=5.73x    frame=11803 fps=137 q=32.0 size=   18208kB time=00:08:12.43 bitrate= 302.9kbits/s dup=5 drop=0 speed=5.73x    frame=11883 fps=137 q=32.0 size=   18291kB time=00:08:15.80 bitrate= 302.2kbits/s dup=5 drop=0 speed=5.73x    frame=11956 fps=137 q=32.0 size=   18420kB time=00:08:18.83 bitrate= 302.5kbits/s dup=5 drop=0 speed=5.73x    frame=12034 fps=137 q=32.0 size=   18490kB time=00:08:22.08 bitrate= 301.7kbits/s dup=5 drop=0 speed=5.74x    frame=12100 fps=137 q=32.0 size=   18580kB time=00:08:24.85 bitrate= 301.5kbits/s dup=5 drop=0 speed=5.73x    frame=12156 fps=137 q=32.0 size=   18636kB time=00:08:27.15 bitrate= 301.0kbits/s dup=5 drop=0 speed=5.73x    frame=12215 fps=137 q=32.0 size=   18683kB time=00:08:29.63 bitrate= 300.3kbits/s dup=5 drop=0 speed=5.72x    frame=12293 fps=137 q=32.0 size=   18773kB time=00:08:32.87 bitrate= 299.8kbits/s dup=5 drop=0 speed=5.73x    frame=12369 fps=137 q=32.0 size=   18867kB time=00:08:36.03 bitrate= 299.5kbits/s dup=5 drop=0 speed=5.73x    frame=12433 fps=137 q=32.0 size=   18960kB time=00:08:38.72 bitrate= 299.4kbits/s dup=5 drop=0 speed=5.73x    frame=12509 fps=137 q=32.0 size=   19072kB time=00:08:41.92 bitrate= 299.3kbits/s dup=5 drop=0 speed=5.73x    frame=12587 fps=137 q=32.0 size=   19161kB time=00:08:45.16 bitrate= 298.9kbits/s dup=5 drop=0 speed=5.73x    frame=12686 fps=138 q=32.0 size=   19237kB time=00:08:49.25 bitrate= 297.8kbits/s dup=5 drop=0 speed=5.75x    frame=12760 fps=138 q=32.0 size=   19369kB time=00:08:52.37 bitrate= 298.0kbits/s dup=5 drop=0 speed=5.75x    frame=12821 fps=138 q=32.0 size=   19483kB time=00:08:54.89 bitrate= 298.4kbits/s dup=5 drop=0 speed=5.75x    frame=12902 fps=138 q=32.0 size=   19608kB time=00:08:58.26 bitrate= 298.4kbits/s dup=5 drop=0 speed=5.75x    frame=12979 fps=138 q=32.0 size=   19678kB time=00:09:01.50 bitrate= 297.7kbits/s dup=5 drop=0 speed=5.75x    frame=13046 fps=138 q=32.0 size=   19779kB time=00:09:04.27 bitrate= 297.7kbits/s dup=5 drop=0 speed=5.75x    frame=13124 fps=138 q=32.0 size=   19861kB time=00:09:07.52 bitrate= 297.2kbits/s dup=5 drop=0 speed=5.76x    frame=13189 fps=138 q=32.0 size=   19934kB time=00:09:10.25 bitrate= 296.8kbits/s dup=5 drop=0 speed=5.75x    frame=13292 fps=138 q=32.0 size=   20051kB time=00:09:14.56 bitrate= 296.2kbits/s dup=5 drop=0 speed=5.77x    frame=13385 fps=139 q=32.0 size=   20158kB time=00:09:18.44 bitrate= 295.7kbits/s dup=5 drop=0 speed=5.78x    frame=13484 fps=139 q=32.0 size=   20272kB time=00:09:22.53 bitrate= 295.2kbits/s dup=5 drop=0 speed=5.79x    frame=13581 fps=139 q=32.0 size=   20375kB time=00:09:26.59 bitrate= 294.6kbits/s dup=5 drop=0 speed= 5.8x    frame=13650 fps=139 q=32.0 size=   20471kB time=00:09:29.45 bitrate= 294.5kbits/s dup=5 drop=0 speed= 5.8x    frame=13727 fps=139 q=32.0 size=   20587kB time=00:09:32.69 bitrate= 294.5kbits/s dup=5 drop=0 speed=5.81x    frame=13818 fps=139 q=32.0 size=   20662kB time=00:09:36.49 bitrate= 293.6kbits/s dup=5 drop=0 speed=5.81x    frame=13913 fps=140 q=32.0 size=   20768kB time=00:09:40.45 bitrate= 293.1kbits/s dup=5 drop=0 speed=5.82x    frame=13976 fps=140 q=32.0 size=   20897kB time=00:09:43.06 bitrate= 293.6kbits/s dup=5 drop=0 speed=5.82x    frame=14054 fps=140 q=32.0 size=   21012kB time=00:09:46.30 bitrate= 293.6kbits/s dup=5 drop=0 speed=5.82x    frame=14134 fps=140 q=32.0 size=   21122kB time=00:09:49.67 bitrate= 293.4kbits/s dup=5 drop=0 speed=5.83x    frame=14230 fps=140 q=32.0 size=   21191kB time=00:09:53.64 bitrate= 292.4kbits/s dup=5 drop=0 speed=5.84x    frame=14304 fps=140 q=32.0 size=   21301kB time=00:09:56.80 bitrate= 292.4kbits/s dup=5 drop=0 speed=5.84x    frame=14369 fps=140 q=32.0 size=   21380kB time=00:09:59.48 bitrate= 292.2kbits/s dup=5 drop=0 speed=5.84x    frame=14419 fps=140 q=32.0 size=   21487kB time=00:10:01.53 bitrate= 292.6kbits/s dup=5 drop=0 speed=5.83x    frame=14498 fps=140 q=32.0 size=   21603kB time=00:10:04.86 bitrate= 292.6kbits/s dup=5 drop=0 speed=5.83x    frame=14580 fps=140 q=32.0 size=   21682kB time=00:10:08.23 bitrate= 292.0kbits/s dup=5 drop=0 speed=5.83x    frame=14671 fps=140 q=32.0 size=   21775kB time=00:10:12.07 bitrate= 291.4kbits/s dup=5 drop=0 speed=5.84x    frame=14746 fps=140 q=32.0 size=   21887kB time=00:10:15.23 bitrate= 291.4kbits/s dup=5 drop=0 speed=5.84x    frame=14825 fps=140 q=32.0 size=   22010kB time=00:10:18.47 bitrate= 291.5kbits/s dup=5 drop=0 speed=5.84x    frame=14912 fps=140 q=32.0 size=   22089kB time=00:10:22.10 bitrate= 290.9kbits/s dup=5 drop=0 speed=5.85x    frame=14992 fps=140 q=32.0 size=   22221kB time=00:10:25.43 bitrate= 291.1kbits/s dup=5 drop=0 speed=5.85x    frame=15083 fps=140 q=32.0 size=   22301kB time=00:10:29.27 bitrate= 290.3kbits/s dup=5 drop=0 speed=5.86x    frame=15181 fps=141 q=32.0 size=   22413kB time=00:10:33.32 bitrate= 289.9kbits/s dup=5 drop=0 speed=5.87x    frame=15280 fps=141 q=32.0 size=   22480kB time=00:10:37.46 bitrate= 288.9kbits/s dup=5 drop=0 speed=5.88x    frame=15346 fps=141 q=32.0 size=   22568kB time=00:10:40.23 bitrate= 288.8kbits/s dup=5 drop=0 speed=5.88x    frame=15435 fps=141 q=32.0 size=   22689kB time=00:10:43.90 bitrate= 288.7kbits/s dup=5 drop=0 speed=5.89x    frame=15505 fps=141 q=32.0 size=   22767kB time=00:10:46.89 bitrate= 288.3kbits/s dup=5 drop=0 speed=5.89x    frame=15596 fps=141 q=32.0 size=   22843kB time=00:10:50.64 bitrate= 287.6kbits/s dup=5 drop=0 speed=5.89x    frame=15664 fps=141 q=32.0 size=   22922kB time=00:10:53.46 bitrate= 287.4kbits/s dup=5 drop=0 speed=5.89x    frame=15716 fps=141 q=32.0 size=   22988kB time=00:10:55.63 bitrate= 287.2kbits/s dup=5 drop=0 speed=5.89x    frame=15773 fps=141 q=32.0 size=   23067kB time=00:10:58.02 bitrate= 287.2kbits/s dup=5 drop=0 speed=5.88x    frame=15862 fps=141 q=32.0 size=   23145kB time=00:11:01.73 bitrate= 286.5kbits/s dup=5 drop=0 speed=5.89x    frame=15940 fps=141 q=32.0 size=   23243kB time=00:11:04.98 bitrate= 286.3kbits/s dup=5 drop=0 speed=5.89x    frame=16008 fps=141 q=32.0 size=   23354kB time=00:11:07.79 bitrate= 286.5kbits/s dup=5 drop=0 speed=5.89x    frame=16130 fps=142 q=32.0 size=   23439kB time=00:11:12.91 bitrate= 285.3kbits/s dup=5 drop=0 speed=5.91x    frame=16261 fps=142 q=32.0 size=   23523kB time=00:11:18.37 bitrate= 284.1kbits/s dup=5 drop=0 speed=5.93x    frame=16329 fps=142 q=32.0 size=   23611kB time=00:11:21.19 bitrate= 283.9kbits/s dup=5 drop=0 speed=5.93x    frame=16376 fps=142 q=32.0 size=   23704kB time=00:11:23.20 bitrate= 284.2kbits/s dup=5 drop=0 speed=5.92x    frame=16425 fps=142 q=32.0 size=   23789kB time=00:11:25.20 bitrate= 284.4kbits/s dup=5 drop=0 speed=5.91x    frame=16506 fps=142 q=32.0 size=   23901kB time=00:11:28.61 bitrate= 284.3kbits/s dup=5 drop=0 speed=5.91x    frame=16577 fps=142 q=32.0 size=   24000kB time=00:11:31.56 bitrate= 284.3kbits/s dup=5 drop=0 speed=5.91x    frame=16659 fps=142 q=32.0 size=   24113kB time=00:11:34.97 bitrate= 284.2kbits/s dup=5 drop=0 speed=5.91x    frame=16717 fps=142 q=32.0 size=   24249kB time=00:11:37.40 bitrate= 284.8kbits/s dup=5 drop=0 speed=5.91x    frame=16805 fps=142 q=32.0 size=   24345kB time=00:11:41.07 bitrate= 284.5kbits/s dup=5 drop=0 speed=5.92x    frame=16904 fps=142 q=32.0 size=   24465kB time=00:11:45.17 bitrate= 284.2kbits/s dup=5 drop=0 speed=5.93x    frame=16997 fps=142 q=32.0 size=   24560kB time=00:11:49.05 bitrate= 283.8kbits/s dup=5 drop=0 speed=5.93x    frame=17080 fps=142 q=32.0 size=   24689kB time=00:11:52.55 bitrate= 283.8kbits/s dup=5 drop=0 speed=5.94x    frame=17159 fps=142 q=32.0 size=   24797kB time=00:11:55.84 bitrate= 283.8kbits/s dup=5 drop=0 speed=5.94x    frame=17222 fps=142 q=32.0 size=   24923kB time=00:11:58.44 bitrate= 284.2kbits/s dup=5 drop=0 speed=5.94x    frame=17300 fps=142 q=32.0 size=   25004kB time=00:12:01.68 bitrate= 283.8kbits/s dup=5 drop=0 speed=5.94x    frame=17375 fps=142 q=32.0 size=   25109kB time=00:12:04.84 bitrate= 283.8kbits/s dup=5 drop=0 speed=5.94x    frame=17470 fps=143 q=32.0 size=   25199kB time=00:12:08.81 bitrate= 283.2kbits/s dup=5 drop=0 speed=5.95x    frame=17570 fps=143 q=32.0 size=   25319kB time=00:12:12.99 bitrate= 283.0kbits/s dup=5 drop=0 speed=5.96x    frame=17658 fps=143 q=32.0 size=   25401kB time=00:12:16.66 bitrate= 282.5kbits/s dup=5 drop=0 speed=5.96x    frame=17713 fps=143 q=32.0 size=   25526kB time=00:12:18.92 bitrate= 283.0kbits/s dup=5 drop=0 speed=5.96x    frame=17792 fps=143 q=32.0 size=   25619kB time=00:12:22.20 bitrate= 282.8kbits/s dup=5 drop=0 speed=5.96x    frame=17868 fps=143 q=32.0 size=   25701kB time=00:12:25.40 bitrate= 282.5kbits/s dup=5 drop=0 speed=5.96x    frame=17922 fps=143 q=32.0 size=   25838kB time=00:12:27.62 bitrate= 283.1kbits/s dup=5 drop=0 speed=5.95x    frame=17961 fps=142 q=32.0 size=   25900kB time=00:12:29.29 bitrate= 283.2kbits/s dup=5 drop=0 speed=5.94x    frame=18030 fps=142 q=32.0 size=   26009kB time=00:12:32.15 bitrate= 283.3kbits/s dup=5 drop=0 speed=5.94x    frame=18113 fps=142 q=32.0 size=   26104kB time=00:12:35.60 bitrate= 283.0kbits/s dup=5 drop=0 speed=5.94x    frame=18186 fps=142 q=32.0 size=   26184kB time=00:12:38.67 bitrate= 282.7kbits/s dup=5 drop=0 speed=5.94x    frame=18250 fps=142 q=32.0 size=   26259kB time=00:12:41.32 bitrate= 282.6kbits/s dup=5 drop=0 speed=5.94x    frame=18292 fps=142 q=32.0 size=   26387kB time=00:12:43.07 bitrate= 283.3kbits/s dup=5 drop=0 speed=5.93x    frame=18353 fps=142 q=32.0 size=   26486kB time=00:12:45.63 bitrate= 283.4kbits/s dup=5 drop=0 speed=5.93x    frame=18441 fps=142 q=32.0 size=   26566kB time=00:12:49.30 bitrate= 282.9kbits/s dup=5 drop=0 speed=5.93x    frame=18538 fps=142 q=32.0 size=   26662kB time=00:12:53.35 bitrate= 282.4kbits/s dup=5 drop=0 speed=5.94x    frame=18608 fps=142 q=32.0 size=   26736kB time=00:12:56.25 bitrate= 282.2kbits/s dup=5 drop=0 speed=5.94x    frame=18677 fps=142 q=32.0 size=   26854kB time=00:12:59.11 bitrate= 282.4kbits/s dup=5 drop=0 speed=5.94x    frame=18747 fps=142 q=32.0 size=   26976kB time=00:13:02.05 bitrate= 282.6kbits/s dup=5 drop=0 speed=5.94x    frame=18837 fps=142 q=32.0 size=   27056kB time=00:13:05.81 bitrate= 282.1kbits/s dup=5 drop=0 speed=5.94x    frame=18933 fps=143 q=32.0 size=   27155kB time=00:13:09.82 bitrate= 281.6kbits/s dup=5 drop=0 speed=5.95x    frame=19025 fps=143 q=32.0 size=   27266kB time=00:13:13.66 bitrate= 281.4kbits/s dup=5 drop=0 speed=5.95x    frame=19126 fps=143 q=32.0 size=   27380kB time=00:13:17.88 bitrate= 281.1kbits/s dup=5 drop=0 speed=5.96x    frame=19222 fps=143 q=32.0 size=   27475kB time=00:13:21.89 bitrate= 280.7kbits/s dup=5 drop=0 speed=5.97x    frame=19301 fps=143 q=32.0 size=   27558kB time=00:13:25.18 bitrate= 280.4kbits/s dup=5 drop=0 speed=5.97x    frame=19369 fps=143 q=32.0 size=   27665kB time=00:13:28.00 bitrate= 280.5kbits/s dup=5 drop=0 speed=5.97x    frame=19457 fps=143 q=32.0 size=   27779kB time=00:13:31.67 bitrate= 280.4kbits/s dup=5 drop=0 speed=5.98x    frame=19533 fps=143 q=32.0 size=   27876kB time=00:13:34.82 bitrate= 280.3kbits/s dup=5 drop=0 speed=5.98x    frame=19610 fps=143 q=32.0 size=   27995kB time=00:13:38.07 bitrate= 280.3kbits/s dup=5 drop=0 speed=5.98x    frame=19700 fps=143 q=32.0 size=   28068kB time=00:13:41.78 bitrate= 279.8kbits/s dup=5 drop=0 speed=5.98x    frame=19762 fps=143 q=32.0 size=   28138kB time=00:13:44.38 bitrate= 279.6kbits/s dup=5 drop=0 speed=5.98x    frame=19855 fps=143 q=32.0 size=   28221kB time=00:13:48.26 bitrate= 279.1kbits/s dup=5 drop=0 speed=5.98x    frame=19954 fps=144 q=32.0 size=   28310kB time=00:13:52.40 bitrate= 278.6kbits/s dup=5 drop=0 speed=5.99x    frame=20044 fps=144 q=32.0 size=   28393kB time=00:13:56.16 bitrate= 278.2kbits/s dup=5 drop=0 speed=   6x    frame=20118 fps=144 q=32.0 size=   28477kB time=00:13:59.27 bitrate= 278.0kbits/s dup=5 drop=0 speed=   6x    frame=20182 fps=144 q=32.0 size=   28548kB time=00:14:01.96 bitrate= 277.8kbits/s dup=5 drop=0 speed=   6x    frame=20269 fps=144 q=32.0 size=   28624kB time=00:14:05.54 bitrate= 277.3kbits/s dup=5 drop=0 speed=   6x    frame=20353 fps=144 q=32.0 size=   28709kB time=00:14:09.04 bitrate= 277.0kbits/s dup=5 drop=0 speed=   6x    frame=20397 fps=144 q=32.0 size=   28790kB time=00:14:10.88 bitrate= 277.2kbits/s dup=5 drop=0 speed=5.99x    frame=20458 fps=144 q=32.0 size=   28863kB time=00:14:13.44 bitrate= 277.0kbits/s dup=5 drop=0 speed=5.99x    frame=20566 fps=144 q=32.0 size=   28947kB time=00:14:17.92 bitrate= 276.4kbits/s dup=5 drop=0 speed=   6x    frame=20667 fps=144 q=32.0 size=   29012kB time=00:14:22.14 bitrate= 275.7kbits/s dup=5 drop=0 speed=6.01x    frame=20750 fps=144 q=32.0 size=   29089kB time=00:14:25.60 bitrate= 275.3kbits/s dup=5 drop=0 speed=6.01x    frame=20828 fps=144 q=32.0 size=   29178kB time=00:14:28.88 bitrate= 275.1kbits/s dup=5 drop=0 speed=6.01x    frame=20917 fps=144 q=32.0 size=   29264kB time=00:14:32.55 bitrate= 274.7kbits/s dup=5 drop=0 speed=6.02x    frame=20983 fps=144 q=32.0 size=   29343kB time=00:14:35.32 bitrate= 274.6kbits/s dup=5 drop=0 speed=6.02x    frame=21039 fps=144 q=32.0 size=   29430kB time=00:14:37.67 bitrate= 274.7kbits/s dup=5 drop=0 speed=6.01x    frame=21099 fps=144 q=32.0 size=   29529kB time=00:14:40.19 bitrate= 274.8kbits/s dup=5 drop=0 speed=6.01x    frame=21138 fps=144 q=32.0 size=   29604kB time=00:14:41.77 bitrate= 275.0kbits/s dup=5 drop=0 speed=   6x    frame=21200 fps=144 q=32.0 size=   29729kB time=00:14:44.37 bitrate= 275.4kbits/s dup=5 drop=0 speed=   6x    frame=21307 fps=144 q=32.0 size=   29836kB time=00:14:48.85 bitrate= 275.0kbits/s dup=5 drop=0 speed=6.01x    frame=21404 fps=144 q=32.0 size=   29915kB time=00:14:52.90 bitrate= 274.5kbits/s dup=5 drop=0 speed=6.01x    frame=21500 fps=144 q=32.0 size=   29997kB time=00:14:56.87 bitrate= 274.0kbits/s dup=5 drop=0 speed=6.02x    frame=21590 fps=144 q=32.0 size=   30104kB time=00:15:00.63 bitrate= 273.8kbits/s dup=5 drop=0 speed=6.02x    frame=21666 fps=144 q=32.0 size=   30205kB time=00:15:03.83 bitrate= 273.8kbits/s dup=5 drop=0 speed=6.02x    frame=21732 fps=144 q=32.0 size=   30287kB time=00:15:06.56 bitrate= 273.7kbits/s dup=5 drop=0 speed=6.02x    frame=21787 fps=144 q=32.0 size=   30360kB time=00:15:08.86 bitrate= 273.6kbits/s dup=5 drop=0 speed=6.02x    frame=21862 fps=144 q=32.0 size=   30459kB time=00:15:11.93 bitrate= 273.6kbits/s dup=5 drop=0 speed=6.02x    frame=21957 fps=144 q=32.0 size=   30551kB time=00:15:15.94 bitrate= 273.2kbits/s dup=5 drop=0 speed=6.02x    frame=22041 fps=144 q=32.0 size=   30616kB time=00:15:19.44 bitrate= 272.8kbits/s dup=5 drop=0 speed=6.03x    frame=22084 fps=144 q=32.0 size=   30725kB time=00:15:21.19 bitrate= 273.2kbits/s dup=5 drop=0 speed=6.02x    frame=22128 fps=144 q=32.0 size=   30802kB time=00:15:23.07 bitrate= 273.4kbits/s dup=5 drop=0 speed=6.01x    frame=22178 fps=144 q=32.0 size=   30904kB time=00:15:25.16 bitrate= 273.6kbits/s dup=5 drop=0 speed=   6x    frame=22241 fps=144 q=32.0 size=   31000kB time=00:15:27.80 bitrate= 273.7kbits/s dup=5 drop=0 speed=   6x    frame=22321 fps=144 q=32.0 size=   31081kB time=00:15:31.13 bitrate= 273.4kbits/s dup=5 drop=0 speed=   6x    frame=22392 fps=144 q=32.0 size=   31165kB time=00:15:34.12 bitrate= 273.3kbits/s dup=5 drop=0 speed=   6x    frame=22464 fps=144 q=32.0 size=   31255kB time=00:15:37.11 bitrate= 273.2kbits/s dup=5 drop=0 speed=   6x    frame=22531 fps=144 q=32.0 size=   31362kB time=00:15:39.88 bitrate= 273.3kbits/s dup=5 drop=0 speed=   6x    frame=22596 fps=144 q=32.0 size=   31452kB time=00:15:42.61 bitrate= 273.3kbits/s dup=5 drop=0 speed=   6x    frame=22676 fps=144 q=32.0 size=   31542kB time=00:15:45.94 bitrate= 273.2kbits/s dup=5 drop=0 speed=   6x    frame=22778 fps=144 q=32.0 size=   31632kB time=00:15:50.16 bitrate= 272.7kbits/s dup=5 drop=0 speed=6.01x    frame=22856 fps=144 q=32.0 size=   31710kB time=00:15:53.40 bitrate= 272.5kbits/s dup=5 drop=0 speed=6.01x    frame=22940 fps=144 q=29.0 size=   31798kB time=00:15:56.95 bitrate= 272.2kbits/s dup=5 drop=0 speed=6.01x    frame=23030 fps=144 q=32.0 size=   31891kB time=00:16:00.70 bitrate= 271.9kbits/s dup=5 drop=0 speed=6.02x    frame=23127 fps=144 q=32.0 size=   31974kB time=00:16:04.75 bitrate= 271.5kbits/s dup=5 drop=0 speed=6.02x    frame=23196 fps=144 q=32.0 size=   32056kB time=00:16:07.61 bitrate= 271.4kbits/s dup=5 drop=0 speed=6.02x    frame=23279 fps=144 q=32.0 size=   32141kB time=00:16:11.07 bitrate= 271.1kbits/s dup=5 drop=0 speed=6.03x    frame=23367 fps=145 q=32.0 size=   32255kB time=00:16:14.74 bitrate= 271.1kbits/s dup=5 drop=0 speed=6.03x    frame=23446 fps=145 q=32.0 size=   32338kB time=00:16:18.02 bitrate= 270.9kbits/s dup=5 drop=0 speed=6.03x    frame=23530 fps=145 q=32.0 size=   32425kB time=00:16:21.56 bitrate= 270.6kbits/s dup=5 drop=0 speed=6.03x    frame=23618 fps=145 q=32.0 size=   32508kB time=00:16:25.23 bitrate= 270.3kbits/s dup=5 drop=0 speed=6.04x    frame=23719 fps=145 q=32.0 size=   32586kB time=00:16:29.46 bitrate= 269.8kbits/s dup=5 drop=0 speed=6.04x    frame=23788 fps=145 q=32.0 size=   32664kB time=00:16:32.32 bitrate= 269.7kbits/s dup=5 drop=0 speed=6.04x    frame=23842 fps=145 q=32.0 size=   32740kB time=00:16:34.53 bitrate= 269.7kbits/s dup=5 drop=0 speed=6.04x    frame=23904 fps=145 q=32.0 size=   32827kB time=00:16:37.14 bitrate= 269.7kbits/s dup=5 drop=0 speed=6.03x    frame=23983 fps=145 q=32.0 size=   32963kB time=00:16:40.42 bitrate= 269.9kbits/s dup=5 drop=0 speed=6.03x    frame=24108 fps=145 q=32.0 size=   33063kB time=00:16:45.67 bitrate= 269.3kbits/s dup=5 drop=0 speed=6.05x    frame=24216 fps=145 q=32.0 size=   33141kB time=00:16:50.15 bitrate= 268.8kbits/s dup=5 drop=0 speed=6.06x    frame=24290 fps=145 q=32.0 size=   33247kB time=00:16:53.27 bitrate= 268.8kbits/s dup=5 drop=0 speed=6.05x    frame=24350 fps=145 q=32.0 size=   33349kB time=00:16:55.74 bitrate= 269.0kbits/s dup=5 drop=0 speed=6.05x    frame=24448 fps=145 q=32.0 size=   33440kB time=00:16:59.84 bitrate= 268.6kbits/s dup=5 drop=0 speed=6.06x    frame=24548 fps=145 q=32.0 size=   33561kB time=00:17:04.02 bitrate= 268.5kbits/s dup=5 drop=0 speed=6.06x    frame=24629 fps=145 q=32.0 size=   33682kB time=00:17:07.43 bitrate= 268.6kbits/s dup=5 drop=0 speed=6.07x    frame=24710 fps=145 q=32.0 size=   33773kB time=00:17:10.76 bitrate= 268.4kbits/s dup=5 drop=0 speed=6.07x    frame=24787 fps=145 q=32.0 size=   33849kB time=00:17:14.00 bitrate= 268.2kbits/s dup=5 drop=0 speed=6.07x    frame=24879 fps=146 q=32.0 size=   33922kB time=00:17:17.84 bitrate= 267.8kbits/s dup=5 drop=0 speed=6.07x    frame=24944 fps=146 q=32.0 size=   34030kB time=00:17:20.53 bitrate= 267.9kbits/s dup=5 drop=0 speed=6.07x    frame=25016 fps=146 q=32.0 size=   34120kB time=00:17:23.56 bitrate= 267.8kbits/s dup=5 drop=0 speed=6.07x    frame=25090 fps=146 q=32.0 size=   34202kB time=00:17:26.63 bitrate= 267.7kbits/s dup=5 drop=0 speed=6.07x    frame=25170 fps=146 q=32.0 size=   34314kB time=00:17:29.96 bitrate= 267.7kbits/s dup=5 drop=0 speed=6.07x    frame=25241 fps=146 q=32.0 size=   34389kB time=00:17:32.90 bitrate= 267.6kbits/s dup=5 drop=0 speed=6.07x    frame=25312 fps=146 q=32.0 size=   34468kB time=00:17:35.89 bitrate= 267.4kbits/s dup=5 drop=0 speed=6.07x    frame=25390 fps=146 q=32.0 size=   34550kB time=00:17:39.13 bitrate= 267.2kbits/s dup=5 drop=0 speed=6.07x    frame=25470 fps=146 q=32.0 size=   34626kB time=00:17:42.46 bitrate= 267.0kbits/s dup=5 drop=0 speed=6.07x    frame=25548 fps=146 q=32.0 size=   34701kB time=00:17:45.70 bitrate= 266.7kbits/s dup=5 drop=0 speed=6.08x    frame=25638 fps=146 q=32.0 size=   34773kB time=00:17:49.50 bitrate= 266.3kbits/s dup=5 drop=0 speed=6.08x    frame=25722 fps=146 q=32.0 size=   34839kB time=00:17:53.00 bitrate= 266.0kbits/s dup=5 drop=0 speed=6.08x    frame=25799 fps=146 q=32.0 size=   34903kB time=00:17:56.20 bitrate= 265.7kbits/s dup=5 drop=0 speed=6.08x    frame=25885 fps=146 q=32.0 size=   34987kB time=00:17:59.78 bitrate= 265.4kbits/s dup=5 drop=0 speed=6.09x    frame=25987 fps=146 q=32.0 size=   35064kB time=00:18:04.01 bitrate= 265.0kbits/s dup=5 drop=0 speed=6.09x    frame=26055 fps=146 q=32.0 size=   35141kB time=00:18:06.87 bitrate= 264.9kbits/s dup=5 drop=0 speed=6.09x    frame=26159 fps=146 q=32.0 size=   35250kB time=00:18:11.22 bitrate= 264.6kbits/s dup=5 drop=0 speed= 6.1x    frame=26276 fps=146 q=32.0 size=   35356kB time=00:18:16.08 bitrate= 264.2kbits/s dup=5 drop=0 speed=6.11x    frame=26403 fps=147 q=32.0 size=   35452kB time=00:18:21.37 bitrate= 263.7kbits/s dup=5 drop=0 speed=6.12x    frame=26474 fps=147 q=32.0 size=   35534kB time=00:18:24.32 bitrate= 263.6kbits/s dup=5 drop=0 speed=6.12x    frame=26535 fps=147 q=32.0 size=   35608kB time=00:18:26.92 bitrate= 263.5kbits/s dup=5 drop=0 speed=6.12x    frame=26584 fps=146 q=32.0 size=   35695kB time=00:18:28.92 bitrate= 263.7kbits/s dup=5 drop=0 speed=6.11x    frame=26640 fps=146 q=32.0 size=   35794kB time=00:18:31.27 bitrate= 263.9kbits/s dup=5 drop=0 speed=6.11x    frame=26732 fps=146 q=32.0 size=   35906kB time=00:18:35.11 bitrate= 263.8kbits/s dup=5 drop=0 speed=6.11x    frame=26806 fps=146 q=32.0 size=   35989kB time=00:18:38.18 bitrate= 263.7kbits/s dup=5 drop=0 speed=6.11x    frame=26879 fps=146 q=32.0 size=   36091kB time=00:18:41.21 bitrate= 263.7kbits/s dup=5 drop=0 speed=6.11x    frame=26961 fps=146 q=32.0 size=   36190kB time=00:18:44.67 bitrate= 263.6kbits/s dup=5 drop=0 speed=6.11x    frame=27050 fps=147 q=32.0 size=   36265kB time=00:18:48.34 bitrate= 263.3kbits/s dup=5 drop=0 speed=6.11x    frame=27153 fps=147 q=32.0 size=   36361kB time=00:18:52.65 bitrate= 263.0kbits/s dup=5 drop=0 speed=6.12x    frame=27214 fps=147 q=32.0 size=   36463kB time=00:18:55.21 bitrate= 263.1kbits/s dup=5 drop=0 speed=6.12x    frame=27265 fps=147 q=32.0 size=   36552kB time=00:18:57.34 bitrate= 263.3kbits/s dup=5 drop=0 speed=6.11x    frame=27357 fps=147 q=32.0 size=   36647kB time=00:19:01.18 bitrate= 263.1kbits/s dup=5 drop=0 speed=6.12x    frame=27466 fps=147 q=32.0 size=   36718kB time=00:19:05.70 bitrate= 262.5kbits/s dup=5 drop=0 speed=6.12x    frame=27558 fps=147 q=32.0 size=   36812kB time=00:19:09.54 bitrate= 262.3kbits/s dup=5 drop=0 speed=6.13x    frame=27658 fps=147 q=32.0 size=   36897kB time=00:19:13.72 bitrate= 262.0kbits/s dup=5 drop=0 speed=6.13x    frame=27738 fps=147 q=32.0 size=   36976kB time=00:19:17.05 bitrate= 261.8kbits/s dup=5 drop=0 speed=6.14x    frame=27811 fps=147 q=32.0 size=   37058kB time=00:19:20.12 bitrate= 261.7kbits/s dup=5 drop=0 speed=6.14x    frame=27897 fps=147 q=32.0 size=   37142kB time=00:19:23.67 bitrate= 261.5kbits/s dup=5 drop=0 speed=6.14x    frame=27983 fps=147 q=32.0 size=   37215kB time=00:19:27.29 bitrate= 261.2kbits/s dup=5 drop=0 speed=6.14x    frame=28083 fps=147 q=32.0 size=   37306kB time=00:19:31.47 bitrate= 260.9kbits/s dup=5 drop=0 speed=6.15x    frame=28181 fps=147 q=32.0 size=   37374kB time=00:19:35.53 bitrate= 260.5kbits/s dup=5 drop=0 speed=6.15x    frame=28274 fps=148 q=32.0 size=   37459kB time=00:19:39.41 bitrate= 260.2kbits/s dup=5 drop=0 speed=6.15x    frame=28324 fps=147 q=32.0 size=   37555kB time=00:19:41.50 bitrate= 260.4kbits/s dup=5 drop=0 speed=6.15x    frame=28407 fps=147 q=32.0 size=   37624kB time=00:19:44.96 bitrate= 260.1kbits/s dup=5 drop=0 speed=6.15x    frame=28516 fps=148 q=32.0 size=   37727kB time=00:19:49.52 bitrate= 259.8kbits/s dup=5 drop=0 speed=6.16x    frame=28617 fps=148 q=32.0 size=   37809kB time=00:19:53.75 bitrate= 259.5kbits/s dup=5 drop=0 speed=6.16x    frame=28705 fps=148 q=32.0 size=   37903kB time=00:19:57.37 bitrate= 259.3kbits/s dup=5 drop=0 speed=6.17x    frame=28781 fps=148 q=32.0 size=   37986kB time=00:20:00.57 bitrate= 259.2kbits/s dup=5 drop=0 speed=6.17x    frame=28868 fps=148 q=32.0 size=   38065kB time=00:20:04.20 bitrate= 259.0kbits/s dup=5 drop=0 speed=6.17x    frame=28963 fps=148 q=32.0 size=   38181kB time=00:20:08.17 bitrate= 258.9kbits/s dup=5 drop=0 speed=6.17x    frame=29066 fps=148 q=32.0 size=   38250kB time=00:20:12.43 bitrate= 258.4kbits/s dup=5 drop=0 speed=6.18x    frame=29166 fps=148 q=32.0 size=   38379kB time=00:20:16.61 bitrate= 258.4kbits/s dup=5 drop=0 speed=6.18x    frame=29217 fps=148 q=32.0 size=   38464kB time=00:20:18.75 bitrate= 258.5kbits/s dup=5 drop=0 speed=6.18x    frame=29275 fps=148 q=32.0 size=   38558kB time=00:20:21.18 bitrate= 258.7kbits/s dup=5 drop=0 speed=6.17x    frame=29344 fps=148 q=32.0 size=   38630kB time=00:20:24.04 bitrate= 258.5kbits/s dup=5 drop=0 speed=6.17x    frame=29415 fps=148 q=32.0 size=   38738kB time=00:20:26.98 bitrate= 258.6kbits/s dup=5 drop=0 speed=6.17x    frame=29491 fps=148 q=32.0 size=   38844kB time=00:20:30.18 bitrate= 258.7kbits/s dup=5 drop=0 speed=6.17x    frame=29559 fps=148 q=32.0 size=   38938kB time=00:20:33.00 bitrate= 258.7kbits/s dup=5 drop=0 speed=6.17x    frame=29628 fps=148 q=32.0 size=   39033kB time=00:20:35.90 bitrate= 258.7kbits/s dup=5 drop=0 speed=6.17x    frame=29713 fps=148 q=32.0 size=   39154kB time=00:20:39.44 bitrate= 258.8kbits/s dup=5 drop=0 speed=6.17x    frame=29852 fps=148 q=32.0 size=   39258kB time=00:20:45.24 bitrate= 258.3kbits/s dup=5 drop=0 speed=6.19x    frame=29937 fps=148 q=32.0 size=   39339kB time=00:20:48.79 bitrate= 258.1kbits/s dup=5 drop=0 speed=6.19x    frame=30027 fps=148 q=32.0 size=   39437kB time=00:20:52.54 bitrate= 257.9kbits/s dup=5 drop=0 speed=6.19x    frame=30100 fps=148 q=32.0 size=   39541kB time=00:20:55.57 bitrate= 258.0kbits/s dup=5 drop=0 speed=6.19x    frame=30160 fps=148 q=32.0 size=   39634kB time=00:20:58.09 bitrate= 258.1kbits/s dup=5 drop=0 speed=6.19x    frame=30257 fps=148 q=32.0 size=   39716kB time=00:21:02.14 bitrate= 257.8kbits/s dup=5 drop=0 speed=6.19x    frame=30345 fps=148 q=32.0 size=   39820kB time=00:21:05.81 bitrate= 257.7kbits/s dup=5 drop=0 speed=6.19x    frame=30448 fps=149 q=32.0 size=   39907kB time=00:21:10.12 bitrate= 257.4kbits/s dup=5 drop=0 speed= 6.2x    frame=30538 fps=149 q=32.0 size=   40005kB time=00:21:13.83 bitrate= 257.3kbits/s dup=5 drop=0 speed= 6.2x    frame=30641 fps=149 q=32.0 size=   40073kB time=00:21:18.14 bitrate= 256.8kbits/s dup=5 drop=0 speed=6.21x    frame=30736 fps=149 q=32.0 size=   40152kB time=00:21:22.11 bitrate= 256.5kbits/s dup=5 drop=0 speed=6.21x    frame=30814 fps=149 q=32.0 size=   40213kB time=00:21:25.35 bitrate= 256.3kbits/s dup=5 drop=0 speed=6.21x    frame=30880 fps=149 q=32.0 size=   40292kB time=00:21:28.08 bitrate= 256.3kbits/s dup=5 drop=0 speed=6.21x    frame=30971 fps=149 q=32.0 size=   40377kB time=00:21:31.92 bitrate= 256.0kbits/s dup=5 drop=0 speed=6.21x    frame=31039 fps=149 q=32.0 size=   40463kB time=00:21:34.74 bitrate= 256.0kbits/s dup=5 drop=0 speed=6.21x    frame=31086 fps=149 q=32.0 size=   40534kB time=00:21:36.70 bitrate= 256.1kbits/s dup=5 drop=0 speed=6.21x    frame=31140 fps=149 q=32.0 size=   40610kB time=00:21:38.96 bitrate= 256.1kbits/s dup=5 drop=0 speed= 6.2x    frame=31194 fps=149 q=32.0 size=   40704kB time=00:21:41.22 bitrate= 256.3kbits/s dup=5 drop=0 speed= 6.2x    frame=31253 fps=149 q=32.0 size=   40817kB time=00:21:43.65 bitrate= 256.5kbits/s dup=5 drop=0 speed= 6.2x    frame=31311 fps=148 q=32.0 size=   40911kB time=00:21:46.04 bitrate= 256.6kbits/s dup=5 drop=0 speed=6.19x    frame=31370 fps=148 q=32.0 size=   41057kB time=00:21:48.56 bitrate= 257.0kbits/s dup=5 drop=0 speed=6.19x    frame=31427 fps=148 q=32.0 size=   41181kB time=00:21:50.91 bitrate= 257.3kbits/s dup=5 drop=0 speed=6.19x    frame=31482 fps=148 q=32.0 size=   41304kB time=00:21:53.21 bitrate= 257.7kbits/s dup=5 drop=0 speed=6.18x    frame=31544 fps=148 q=32.0 size=   41456kB time=00:21:55.77 bitrate= 258.1kbits/s dup=5 drop=0 speed=6.18x    frame=31600 fps=148 q=32.0 size=   41587kB time=00:21:58.16 bitrate= 258.5kbits/s dup=5 drop=0 speed=6.18x    frame=31632 fps=148 q=32.0 size=   41715kB time=00:21:59.48 bitrate= 259.0kbits/s dup=5 drop=0 speed=6.17x    frame=31676 fps=148 q=32.0 size=   41850kB time=00:22:01.32 bitrate= 259.5kbits/s dup=5 drop=0 speed=6.16x    frame=31712 fps=148 q=32.0 size=   41943kB time=00:22:02.81 bitrate= 259.7kbits/s dup=5 drop=0 speed=6.15x    frame=31759 fps=147 q=32.0 size=   42052kB time=00:22:04.77 bitrate= 260.0kbits/s dup=5 drop=0 speed=6.15x    frame=31812 fps=147 q=32.0 size=   42182kB time=00:22:06.99 bitrate= 260.4kbits/s dup=5 drop=0 speed=6.14x    frame=31858 fps=147 q=32.0 size=   42259kB time=00:22:08.91 bitrate= 260.5kbits/s dup=5 drop=0 speed=6.14x    frame=31917 fps=147 q=32.0 size=   42367kB time=00:22:11.39 bitrate= 260.7kbits/s dup=5 drop=0 speed=6.13x    frame=31968 fps=147 q=32.0 size=   42471kB time=00:22:13.48 bitrate= 260.9kbits/s dup=5 drop=0 speed=6.13x    frame=32019 fps=147 q=32.0 size=   42576kB time=00:22:15.61 bitrate= 261.1kbits/s dup=5 drop=0 speed=6.12x    frame=32066 fps=147 q=32.0 size=   42684kB time=00:22:17.57 bitrate= 261.4kbits/s dup=5 drop=0 speed=6.12x    frame=32133 fps=147 q=32.0 size=   42795kB time=00:22:20.35 bitrate= 261.6kbits/s dup=5 drop=0 speed=6.12x    frame=32201 fps=147 q=32.0 size=   42894kB time=00:22:23.21 bitrate= 261.6kbits/s dup=5 drop=0 speed=6.12x    frame=32256 fps=147 q=32.0 size=   42994kB time=00:22:25.51 bitrate= 261.8kbits/s dup=5 drop=0 speed=6.11x    frame=32326 fps=147 q=32.0 size=   43099kB time=00:22:28.45 bitrate= 261.8kbits/s dup=5 drop=0 speed=6.11x    frame=32383 fps=146 q=32.0 size=   43218kB time=00:22:30.76 bitrate= 262.1kbits/s dup=5 drop=0 speed=6.11x    frame=32429 fps=146 q=32.0 size=   43354kB time=00:22:32.72 bitrate= 262.5kbits/s dup=5 drop=0 speed= 6.1x    frame=32479 fps=146 q=32.0 size=   43549kB time=00:22:34.77 bitrate= 263.3kbits/s dup=5 drop=0 speed= 6.1x    frame=32525 fps=146 q=32.0 size=   43709kB time=00:22:36.73 bitrate= 263.9kbits/s dup=5 drop=0 speed=6.09x    frame=32589 fps=146 q=32.0 size=   43869kB time=00:22:39.38 bitrate= 264.4kbits/s dup=5 drop=0 speed=6.09x    frame=32642 fps=146 q=32.0 size=   44008kB time=00:22:41.60 bitrate= 264.8kbits/s dup=5 drop=0 speed=6.09x    frame=32702 fps=146 q=32.0 size=   44119kB time=00:22:44.11 bitrate= 265.0kbits/s dup=5 drop=0 speed=6.08x    frame=32781 fps=146 q=32.0 size=   44241kB time=00:22:47.40 bitrate= 265.0kbits/s dup=5 drop=0 speed=6.08x    frame=32842 fps=146 q=32.0 size=   44358kB time=00:22:49.92 bitrate= 265.3kbits/s dup=5 drop=0 speed=6.08x    frame=32891 fps=146 q=32.0 size=   44478kB time=00:22:51.96 bitrate= 265.6kbits/s dup=5 drop=0 speed=6.08x    frame=32944 fps=146 q=32.0 size=   44591kB time=00:22:54.18 bitrate= 265.8kbits/s dup=5 drop=0 speed=6.07x    frame=32989 fps=145 q=32.0 size=   44708kB time=00:22:56.06 bitrate= 266.2kbits/s dup=5 drop=0 speed=6.07x    frame=33048 fps=145 q=32.0 size=   44790kB time=00:22:58.53 bitrate= 266.2kbits/s dup=5 drop=0 speed=6.07x    frame=33125 fps=145 q=32.0 size=   44869kB time=00:23:01.73 bitrate= 266.0kbits/s dup=5 drop=0 speed=6.07x    frame=33227 fps=146 q=32.0 size=   44980kB time=00:23:06.00 bitrate= 265.9kbits/s dup=5 drop=0 speed=6.07x    frame=33313 fps=146 q=32.0 size=   45092kB time=00:23:09.59 bitrate= 265.8kbits/s dup=5 drop=0 speed=6.07x    frame=33417 fps=146 q=32.0 size=   45175kB time=00:23:13.89 bitrate= 265.5kbits/s dup=5 drop=0 speed=6.08x    frame=33498 fps=146 q=32.0 size=   45243kB time=00:23:17.31 bitrate= 265.2kbits/s dup=5 drop=0 speed=6.08x    frame=33570 fps=146 q=32.0 size=   45342kB time=00:23:20.29 bitrate= 265.3kbits/s dup=5 drop=0 speed=6.08x    frame=33647 fps=146 q=32.0 size=   45412kB time=00:23:23.49 bitrate= 265.1kbits/s dup=5 drop=0 speed=6.08x    frame=33716 fps=146 q=32.0 size=   45505kB time=00:23:26.40 bitrate= 265.1kbits/s dup=5 drop=0 speed=6.08x    frame=33784 fps=146 q=32.0 size=   45600kB time=00:23:29.21 bitrate= 265.1kbits/s dup=5 drop=0 speed=6.08x    frame=33867 fps=146 q=32.0 size=   45702kB time=00:23:32.67 bitrate= 265.0kbits/s dup=5 drop=0 speed=6.08x    frame=33946 fps=146 q=32.0 size=   45801kB time=00:23:36.00 bitrate= 265.0kbits/s dup=5 drop=0 speed=6.08x    frame=34021 fps=146 q=32.0 size=   45887kB time=00:23:39.11 bitrate= 264.9kbits/s dup=5 drop=0 speed=6.08x    frame=34103 fps=146 q=32.0 size=   46010kB time=00:23:42.57 bitrate= 265.0kbits/s dup=5 drop=0 speed=6.08x    frame=34176 fps=146 q=32.0 size=   46092kB time=00:23:45.55 bitrate= 264.9kbits/s dup=5 drop=0 speed=6.08x    frame=34266 fps=146 q=32.0 size=   46216kB time=00:23:49.35 bitrate= 264.9kbits/s dup=5 drop=0 speed=6.08x    frame=34359 fps=146 q=32.0 size=   46296kB time=00:23:53.19 bitrate= 264.6kbits/s dup=5 drop=0 speed=6.09x    frame=34416 fps=146 q=32.0 size=   46384kB time=00:23:55.58 bitrate= 264.7kbits/s dup=5 drop=0 speed=6.08x    frame=34458 fps=146 q=32.0 size=   46525kB time=00:23:57.33 bitrate= 265.2kbits/s dup=5 drop=0 speed=6.08x    frame=34557 fps=146 q=32.0 size=   46629kB time=00:24:01.47 bitrate= 265.0kbits/s dup=5 drop=0 speed=6.08x    frame=34613 fps=146 q=32.0 size=   46673kB time=00:24:03.81 bitrate= 264.8kbits/s dup=5 drop=0 speed=6.08x    frame=34672 fps=146 q=32.0 size=   46771kB time=00:24:06.25 bitrate= 264.9kbits/s dup=5 drop=0 speed=6.08x    frame=34705 fps=146 q=32.0 size=   46864kB time=00:24:07.65 bitrate= 265.2kbits/s dup=5 drop=0 speed=6.07x    frame=34770 fps=145 q=32.0 size=   46978kB time=00:24:10.34 bitrate= 265.3kbits/s dup=5 drop=0 speed=6.07x    frame=34817 fps=145 q=32.0 size=   47039kB time=00:24:12.31 bitrate= 265.3kbits/s dup=5 drop=0 speed=6.06x    frame=34871 fps=145 q=32.0 size=   47146kB time=00:24:14.57 bitrate= 265.5kbits/s dup=5 drop=0 speed=6.06x    frame=34922 fps=145 q=32.0 size=   47251kB time=00:24:16.70 bitrate= 265.7kbits/s dup=5 drop=0 speed=6.06x    frame=34992 fps=145 q=32.0 size=   47350kB time=00:24:19.60 bitrate= 265.7kbits/s dup=5 drop=0 speed=6.05x    frame=35045 fps=145 q=32.0 size=   47445kB time=00:24:21.82 bitrate= 265.9kbits/s dup=5 drop=0 speed=6.05x    frame=35102 fps=145 q=32.0 size=   47553kB time=00:24:24.21 bitrate= 266.1kbits/s dup=5 drop=0 speed=6.05x    frame=35191 fps=145 q=32.0 size=   47648kB time=00:24:27.92 bitrate= 265.9kbits/s dup=5 drop=0 speed=6.05x    frame=35284 fps=145 q=32.0 size=   47768kB time=00:24:31.80 bitrate= 265.9kbits/s dup=5 drop=0 speed=6.05x    frame=35384 fps=145 q=32.0 size=   47890kB time=00:24:35.99 bitrate= 265.8kbits/s dup=5 drop=0 speed=6.06x    frame=35463 fps=145 q=32.0 size=   47978kB time=00:24:39.27 bitrate= 265.7kbits/s dup=5 drop=0 speed=6.06x    frame=35562 fps=145 q=32.0 size=   48071kB time=00:24:43.37 bitrate= 265.5kbits/s dup=5 drop=0 speed=6.06x    [mp4 @ 0x371d440] Starting second pass: moving the moov atom to the beginning of the file
frame=35574 fps=145 q=-1.0 Lsize=   48967kB time=00:24:43.60 bitrate= 270.4kbits/s dup=5 drop=0 speed=6.06x    
video:38647kB audio:9477kB subtitle:0kB other streams:0kB global headers:0kB muxing overhead: 1.752726%
[libx264 @ 0x378e560] frame I:271   Avg QP:22.03  size: 14320
[libx264 @ 0x378e560] frame P:10844 Avg QP:24.29  size:  2565
[libx264 @ 0x378e560] frame B:24459 Avg QP:30.35  size:   322
[libx264 @ 0x378e560] consecutive B-frames:  4.0%  6.8% 18.1% 71.0%
[libx264 @ 0x378e560] mb I  I16..4: 36.1% 46.4% 17.4%
[libx264 @ 0x378e560] mb P  I16..4:  6.9%  6.4%  1.0%  P16..4: 31.3%  3.9%  3.1%  0.1%  0.0%    skip:47.4%
[libx264 @ 0x378e560] mb B  I16..4:  0.3%  0.3%  0.0%  B16..8: 12.0%  0.7%  0.1%  direct: 0.6%  skip:85.9%  L0:42.1% L1:55.9% BI: 2.0%
[libx264 @ 0x378e560] 8x8 transform intra:45.1% inter:66.8%
[libx264 @ 0x378e560] coded y,uvDC,uvAC intra: 24.2% 44.5% 5.1% inter: 1.8% 4.3% 0.1%
[libx264 @ 0x378e560] i16 v,h,dc,p: 47% 29% 13% 12%
[libx264 @ 0x378e560] i8 v,h,dc,ddl,ddr,vr,hd,vl,hu: 22% 16% 43%  3%  3%  3%  3%  4%  3%
[libx264 @ 0x378e560] i4 v,h,dc,ddl,ddr,vr,hd,vl,hu: 30% 20% 20%  5%  5%  6%  5%  5%  4%
[libx264 @ 0x378e560] i8c dc,h,v,p: 48% 24% 23%  5%
[libx264 @ 0x378e560] Weighted P-Frames: Y:2.5% UV:1.9%
[libx264 @ 0x378e560] ref P L0: 61.7% 10.7% 12.6%  4.1%  3.3%  2.9%  2.7%  1.5%  0.4%  0.0%
[libx264 @ 0x378e560] ref B L0: 82.1%  8.8%  4.6%  1.5%  1.3%  1.0%  0.8%
[libx264 @ 0x378e560] ref B L1: 95.1%  4.9%
[libx264 @ 0x378e560] kb/s:213.37
